<svg viewBox="0 0 302.883 146.128" height="51.551mm" width="106.85mm" xmlns="http://www.w3.org/2000/svg" id="Capa_1">
  <defs>
    <style>
      .cls-1 {
        fill: none;
      }

      .cls-2 {
        fill: #00a09b;
      }

      .cls-3 {
        fill: #2a2d32;
      }
    </style>
  </defs>
  <g>
    <path d="M103.85,34.443c3.221-.572,6.43-.983,9.653-1.233,3.221-.249,6.395-.374,9.551-.374,11.651,0,20.133,2.216,25.422,6.652,5.287,4.433,7.936,11.548,7.936,21.343,0,9.661-2.614,16.689-7.829,21.084-5.224,4.399-13.555,6.588-24.999,6.588h-4.717v24.788h-15.016V34.443ZM125.414,76.387c2.858,0,5.287-.271,7.297-.804,1.994-.532,3.606-1.426,4.826-2.678,1.211-1.252,2.108-2.86,2.675-4.831.576-1.962.86-4.379.86-7.243,0-5.647-1.166-9.664-3.49-12.064-2.317-2.395-6.375-3.597-12.167-3.597-1.008,0-2.117.074-3.323.214-1.225.141-2.3.294-3.225.435v30.142c.999.144,2.091.249,3.276.319,1.181.074,2.264.108,3.272.108Z" class="cls-3"></path>
    <path d="M165.216,34.443c3.216-.572,6.427-.983,9.648-1.233,3.221-.249,6.397-.374,9.546-.374,11.654,0,20.133,2.216,25.422,6.652,5.293,4.433,7.938,11.548,7.938,21.343,0,9.661-2.607,16.689-7.826,21.084-5.224,4.399-13.555,6.588-24.995,6.588h-4.722v24.788h-15.011V34.443ZM186.771,76.387c2.858,0,5.289-.271,7.301-.804,1.992-.532,3.611-1.426,4.824-2.678,1.215-1.252,2.105-2.86,2.682-4.831.572-1.962.86-4.379.86-7.243,0-5.647-1.171-9.664-3.493-12.064-2.321-2.395-6.376-3.597-12.174-3.597-.995,0-2.11.074-3.323.214-1.218.141-2.291.294-3.221.435v30.142c1.004.144,2.096.249,3.277.319,1.178.074,2.272.108,3.267.108Z" class="cls-3"></path>
    <path d="M221.56,102.348h48.49v10.942h-48.49v-10.942Z" class="cls-3"></path>
    <polygon points="76.28 33.906 65.019 33.906 65.019 45.494 65.547 45.494 68.34 57.181 74.565 80.791 65.019 82.018 65.019 94.508 77.458 92.909 83.04 113.291 97.201 113.291 97.201 112.542 76.28 33.906" class="cls-3"></polygon>
    <polygon points="54.66 83.351 61.578 57.181 64.48 45.494 65.019 45.494 65.019 33.906 53.64 33.906 32.835 112.542 32.835 113.291 46.987 113.291 51.569 96.244 65.019 94.508 65.019 82.018 54.66 83.351" class="cls-2"></polygon>
  </g>
  <g>
    <path d="M0,0v146.128h302.883V0H0ZM270.05,113.291H32.835V32.836h237.215v80.455Z" class="cls-1"></path>
    <rect height="32.832" width="48.49" y="69.517" x="221.56" class="cls-1"></rect>
  </g>
</svg>